<svg width="460" height="415" viewBox="0 0 460 415" fill="none" xmlns="http://www.w3.org/2000/svg">
<path d="M309.11 -36.9586L485.607 29.0113L473.926 179.776L312.901 216.715L381.477 354.414L204.16 363.653L100.194 155.466L64.0744 -42.043L16.4376 286.84L309.11 -36.9586Z" stroke="#8DA5C4" stroke-width="0.83" stroke-miterlimit="10"/>
<path d="M100.194 155.465L308.91 215.221L309.53 -38.0706L203.668 364.947" stroke="#8DA5C4" stroke-width="0.83" stroke-miterlimit="10"/>
<mask id="mask0_100_2557" style="mask-type:luminance" maskUnits="userSpaceOnUse" x="0" y="-142" width="522" height="557">
<path d="M522 -142H0V414.06H522V-142Z" fill="white"/>
</mask>
<g mask="url(#mask0_100_2557)">
<path d="M75.5004 226.739C36.1372 213.107 15.2892 170.136 28.9206 130.791C42.5519 91.4275 85.5234 70.5795 124.887 84.2109C164.25 97.8422 185.098 140.814 171.466 180.159C157.835 219.522 114.864 240.37 75.5004 226.739Z" fill="#42659F"/>
<path d="M458.18 225.208C433.086 216.515 419.801 189.143 428.494 164.049C437.187 138.973 464.559 125.67 489.653 134.363C514.747 143.055 528.032 170.445 519.339 195.521C510.647 220.615 483.274 233.9 458.18 225.208Z" fill="#00FF64"/>
<path d="M274.74 62.2512C219.942 43.2621 190.911 -16.5481 209.9 -71.3468C228.89 -126.145 288.7 -155.176 343.498 -136.187C398.297 -117.198 427.328 -57.3874 408.338 -2.58873C389.349 52.21 329.539 81.2403 274.74 62.2512Z" fill="#00FF64"/>
<path d="M299.233 243.176C283.797 237.837 275.615 220.98 280.955 205.526C286.312 190.091 303.151 181.908 318.605 187.266C334.04 192.605 342.223 209.462 336.883 224.898C331.525 240.333 314.687 248.516 299.233 243.176Z" fill="#42659F"/>
<path d="M48.9308 1.63915C24.8026 -6.70731 12.0278 -33.0406 20.3925 -57.1688C28.739 -81.297 55.0722 -94.0718 79.2004 -85.7071C103.329 -77.3424 116.103 -51.0092 107.739 -26.8992C99.3923 -2.77099 73.059 10.0038 48.9308 1.65738" fill="#00FF64"/>
<path d="M11.0621 302.349C2.497 299.378 -2.05893 290.011 0.911537 281.446C3.882 272.863 13.249 268.325 21.8141 271.295C30.3793 274.266 34.9352 283.633 31.9647 292.198C28.9943 300.763 19.6455 305.319 11.0621 302.349Z" fill="#00FF64"/>
<path d="M374.716 369.412C366.151 366.441 361.595 357.074 364.565 348.509C367.536 339.944 376.884 335.388 385.468 338.359C394.033 341.329 398.589 350.678 395.618 359.261C392.648 367.826 383.299 372.382 374.716 369.412Z" fill="#42659F"/>
<path d="M187.649 411.272C161.352 402.16 147.411 373.458 156.523 347.161C165.635 320.864 194.337 306.941 220.634 316.035C246.931 325.146 260.872 353.849 251.76 380.146C242.648 406.442 213.946 420.365 187.649 411.272Z" fill="#00FF64"/>
</g>
</svg>
