<svg width="133" height="24" viewBox="0 0 133 24" fill="none" xmlns="http://www.w3.org/2000/svg">
<path d="M124.008 10.8958H123.907V0.264309H121.211V18.7312H123.907V13.4033H123.985L129.353 18.7312H133L126.294 12.0296L132.949 6.06869H129.325L124.008 10.8958ZM114.299 18.7312H116.994V6.06869H114.299V18.7312ZM115.636 0C114.556 0 113.76 0.869439 113.76 1.95102C113.76 3.06043 114.556 3.8777 115.636 3.8777C116.717 3.8777 117.536 3.06043 117.536 1.95102C117.536 0.872917 116.713 0 115.636 0ZM106.309 8.57615H111.037V6.06869H106.309V2.27098H103.613V14.064C103.613 17.4409 105.256 18.9955 108.033 18.9955C109.601 18.9955 110.834 18.4147 111.809 17.7296L110.756 15.5143C110.011 15.9907 109.113 16.3837 108.263 16.3837C107.183 16.3837 106.313 15.6986 106.313 14.0084V8.57615H106.309ZM94.5709 16.8323C92.5422 16.8323 91.875 15.9872 91.875 15.17C91.875 14.3527 92.4406 13.5876 94.2898 13.4033L97.6799 13.059V16.3837C96.9348 16.648 95.7766 16.8323 94.5709 16.8323ZM94.8283 5.80438C93.1586 5.80438 91.3332 6.17302 89.6127 7.28242L90.6152 9.52558C91.7193 8.8648 93.2873 8.25967 94.7267 8.25967C96.6029 8.25967 97.6799 8.99696 97.6799 10.6871V10.8993L94.6217 11.2158C91.2316 11.5601 89.1758 12.7981 89.1758 15.1456C89.1758 17.4688 90.7439 18.9955 94.6996 18.9955C96.7045 18.9955 99.0143 18.4947 100.376 17.7539V10.5272C100.376 7.41458 98.3471 5.8322 94.8283 5.80438ZM81.3153 5.80438C79.7743 5.80438 78.1283 6.28083 76.8956 7.07028C75.9202 6.22518 74.5316 5.80438 72.862 5.80438C70.8063 5.80438 68.5981 6.64947 67.4398 7.88755V18.7312H70.1357L70.1086 9.34125C71.084 8.54833 72.1135 8.39183 73.1126 8.39183C74.8094 8.39183 75.8084 9.42124 75.8084 11.2158V18.7312H78.5043V11.2123C78.5043 10.5272 78.4264 9.91856 78.274 9.3656C79.0461 8.78481 80.1231 8.38835 81.2272 8.38835C82.846 8.38835 83.923 9.25779 83.923 11.2123V18.7312H86.6189V11.2123C86.6324 7.62324 84.6038 5.80438 81.3153 5.80438ZM55.522 11.1323C55.8573 9.3656 57.09 8.20403 58.9392 8.20403C60.6596 8.20403 61.7637 9.23344 62.0719 11.1323H55.522ZM64.8219 12.1895C64.8219 8.31184 62.4343 5.80438 58.99 5.80438C55.3662 5.80438 52.6975 8.41617 52.6975 12.2939C52.6975 16.488 55.4712 18.9955 59.1729 18.9955C61.022 18.9955 62.7188 18.5191 64.2326 17.2288L62.8983 15.0378C61.8721 16.1194 60.5614 16.6202 59.3287 16.6202C57.5303 16.6202 55.6812 15.6986 55.4509 13.2155H64.7711C64.7948 12.9025 64.8219 12.5304 64.8219 12.1895ZM49.5613 7.88755C47.9696 6.22518 45.6057 5.80438 44.0647 5.80438C39.6213 5.80438 37 8.44399 37 12.426C37 16.2237 39.4926 18.7312 43.0622 18.7312C44.0884 18.7312 44.654 18.2304 44.654 17.3853C44.654 16.5924 44.0884 16.1437 43.0622 16.1437C41.0844 16.1437 39.6958 14.6935 39.6958 12.4225C39.6958 9.97073 41.2131 8.38487 43.9089 8.38487C44.7827 8.38487 46.0425 8.62136 46.7605 9.3343L46.7334 18.5677C46.7334 20.5188 45.013 21.416 42.8793 21.416C40.9286 21.416 39.6416 20.5188 39.3843 20.3866C38.331 19.858 37.3048 20.3588 37.3048 21.3882C37.3048 23.1306 40.3867 24 42.9064 24C46.6555 24 49.5613 22.3133 49.5613 18.5643V7.88755Z" fill="white"/>
<path d="M10.2307 7.38339C10.2307 6.61869 10.8506 5.99878 11.6153 5.99878H25.4615C26.2262 5.99878 26.8461 6.61869 26.8461 7.38339C26.8461 8.1481 26.2262 8.76801 25.4615 8.76801H11.6153C10.8506 8.76801 10.2307 8.1481 10.2307 7.38339Z" fill="white"/>
<path d="M3.76917 12.4596C3.76917 11.6949 4.38908 11.075 5.15378 11.075H25.923C26.6877 11.075 27.3076 11.6949 27.3076 12.4596C27.3076 13.2243 26.6877 13.8442 25.923 13.8442H5.15378C4.38908 13.8442 3.76917 13.2243 3.76917 12.4596Z" fill="#DD0B1A"/>
<path d="M0.538452 17.5379C0.538452 16.7732 1.15837 16.1533 1.92307 16.1533H25.9231C26.6878 16.1533 27.3077 16.7732 27.3077 17.5379C27.3077 18.3026 26.6878 18.9226 25.9231 18.9226H1.92307C1.15837 18.9226 0.538452 18.3026 0.538452 17.5379Z" fill="#FEC40E"/>
</svg>
