<!--
  - Copyright 2025 gematik GmbH
  -
  - Licensed under the Apache License, Version 2.0 (the "License");
  - you may not use this file except in compliance with the License.
  - You may obtain a copy of the License at
  -
  -     http://www.apache.org/licenses/LICENSE-2.0
  -
  - Unless required by applicable law or agreed to in writing, software
  - distributed under the License is distributed on an "AS IS" BASIS,
  - WITHOUT WARRANTIES OR CONDITIONS OF ANY KIND, either express or implied.
  - See the License for the specific language governing permissions and
  - limitations under the License.
  -->

<svg width="77" height="42" viewBox="0 0 77 42" fill="none" xmlns="http://www.w3.org/2000/svg">
<g clip-path="url(#clip0_143_336)">
<path d="M7.7296 28.0256C11.9985 28.0256 15.4592 24.594 15.4592 20.3608C15.4592 16.1277 11.9985 12.696 7.7296 12.696C3.46066 12.696 0 16.1277 0 20.3608C0 24.594 3.46066 28.0256 7.7296 28.0256Z" fill="white"/>
<path d="M13.0142 10.7554C13.2426 10.7554 13.4626 10.6716 13.6374 10.5233C16.057 8.48481 19.1844 7.25441 22.5994 7.25441C25.5998 7.25441 28.448 8.1856 30.8478 9.9501C32.1168 10.8841 33.8963 10.8757 35.0384 9.7963C36.5076 8.40931 36.3243 6.1191 34.7733 4.96141C31.2398 2.32165 27.0296 0.92627 22.5965 0.92627C15.8539 0.92627 9.87275 4.21478 6.19266 9.2566C5.73582 9.88019 6.1983 10.7554 6.9738 10.7554H13.0114H13.0142Z" fill="white"/>
<path d="M48.2105 15.045C48.5969 15.045 48.9663 15.1904 49.2455 15.4561C49.8433 16.0209 49.8659 16.9661 49.2934 17.5561C48.8027 18.0651 47.5309 19.6422 45.6472 21.9883C40.9152 27.8803 36.4737 33.322 34.1444 35.1787C31.6854 37.1418 28.1519 39.3928 22.5937 39.3928C19.3564 39.3928 16.1698 38.5483 13.3752 36.9544C11.0515 35.6261 9.03239 33.8057 7.47858 31.6413H11.3532C14.2832 34.6838 18.3637 36.4231 22.5966 36.4231C27.1903 36.4231 30.0639 34.6251 32.2663 32.8661C34.3559 31.1995 38.8651 25.6655 43.3037 20.14C45.289 17.668 46.5383 16.1188 47.1277 15.5092C47.4125 15.2128 47.7988 15.0506 48.2105 15.0506M48.2105 13.3672C47.3702 13.3672 46.5298 13.6944 45.9038 14.3459C45.2636 15.0086 44.0595 16.5047 41.9812 19.0913C38.7438 23.1209 33.3266 29.8657 31.206 31.5575C29.1333 33.2129 26.6545 34.7453 22.5966 34.7453C18.5386 34.7453 14.9234 33.0227 12.3854 30.2823C12.2021 30.0838 11.9454 29.9635 11.6719 29.9635H6.11652C5.37204 29.9635 4.90675 30.7717 5.29308 31.4037C8.84627 37.1949 15.2702 41.0734 22.5937 41.0734C28.6793 41.0734 32.5314 38.6238 35.2047 36.4874C37.6722 34.5188 41.9925 29.2309 46.9697 23.0342C48.4813 21.1522 50.0435 19.206 50.5173 18.7166C51.7327 17.4527 51.6876 15.4505 50.4129 14.2424C49.7954 13.658 49.003 13.3672 48.2105 13.3672Z" fill="#00FF64"/>
<path d="M69.3348 29.4102C73.6038 29.4102 77.0644 25.9785 77.0644 21.7454C77.0644 17.5122 73.6038 14.0806 69.3348 14.0806C65.0659 14.0806 61.6052 17.5122 61.6052 21.7454C61.6052 25.9785 65.0659 29.4102 69.3348 29.4102Z" fill="white"/>
<path d="M63.8192 31.2444C63.5908 31.2444 63.3708 31.3283 63.196 31.4765C60.7765 33.515 57.6491 34.7454 54.2341 34.7454C51.2336 34.7454 48.3854 33.8142 45.9856 32.0497C44.7166 31.1158 42.9372 31.1241 41.7951 32.2035C40.3259 33.5905 40.5092 35.8807 42.0602 37.0384C45.5908 39.6782 49.801 41.0736 54.2369 41.0736C60.9795 41.0736 66.9607 37.7851 70.6408 32.7432C71.0976 32.1196 70.6351 31.2444 69.8596 31.2444H63.822H63.8192Z" fill="white"/>
<path d="M26.4177 27.7545C27.6923 28.9597 29.7114 28.915 30.9297 27.651C31.5698 26.9883 32.7739 25.4922 34.8523 22.9056C38.0896 18.8761 43.5068 12.1313 45.6275 10.4395C47.7002 8.78402 50.1789 7.25162 54.2369 7.25162C58.2949 7.25162 61.9101 8.97417 64.4481 11.7146C64.6314 11.9131 64.888 12.0334 65.1616 12.0334H70.7169C71.4614 12.0334 71.9267 11.2252 71.5404 10.5933C67.9815 4.80481 61.5576 0.92627 54.2369 0.92627C48.1514 0.92627 44.2993 3.37587 41.6259 5.51229C39.1584 7.48092 34.8382 12.7688 29.8609 18.9655C28.3494 20.8475 26.7871 22.7937 26.3133 23.2831C25.0979 24.5471 25.1431 26.5492 26.4177 27.7573V27.7545Z" fill="#4AFFFF"/>
</g>
<defs>
<clipPath id="clip0_143_336">
<rect width="76.8335" height="40.1472" fill="white" transform="translate(0 0.92627)"/>
</clipPath>
</defs>
</svg>
