<svg width="24" height="24" viewBox="0 0 24 24" fill="none" xmlns="http://www.w3.org/2000/svg">
<path d="M3.0026 23.6475C1.27604 23.6475 0.390625 22.7399 0.390625 20.8695V12.8675C0.390625 11.0192 1.27604 10.1117 3.0026 10.1117H11.8457V7.49968C11.8457 3.48209 14.5241 1.30176 17.6452 1.30176C20.7552 1.30176 23.4446 3.48209 23.4446 7.49968V9.76856C23.4446 10.5544 22.9245 11.0081 22.2936 11.0081C21.6517 11.0081 21.1426 10.5322 21.1426 9.76856V7.33365C21.1426 4.89876 19.5489 3.52637 17.6452 3.52637C15.7305 3.52637 14.1589 4.89876 14.1589 7.33365V10.1559C15.487 10.3441 16.1621 11.2516 16.1621 12.8675V20.8695C16.1621 22.7399 15.2768 23.6475 13.5501 23.6475H3.0026ZM3.52279 21.4228H13.041C13.4948 21.4228 13.7382 21.1572 13.7382 20.6481V13.0999C13.7382 12.5797 13.4948 12.3252 13.041 12.3252H3.52279C3.08008 12.3252 2.81445 12.5797 2.81445 13.0999V20.6481C2.81445 21.1572 3.08008 21.4228 3.52279 21.4228Z" fill="#000E52"/>
</svg>
